<svg id="Capa_1" enable-background="new 0 0 511.88 511.88" height="512" viewBox="0 0 511.88 511.88" width="512" xmlns="http://www.w3.org/2000/svg"><g><path d="m392 419.942v45.023l119.88-90.023-119.88-90.022v45.023h-49.052c11.538-22.514 18.052-48.011 18.052-75 0-73.866-49.136-138.672-120-158.779v-49.249l-66.658 44.439c-81.759 10.734-143.342 80.66-143.342 163.588 0 26.459 6.159 51.945 17.974 75h-48.974v90zm30-60v-14.978l39.92 29.978-39.92 29.978v-14.978h-131.242c12.101-8.519 23.014-18.617 32.428-30zm-361-105c0-46.515 23.44-87.862 59.683-112.184l27.831 18.554c-35.131 17.875-57.514 53.982-57.514 93.63 0 29.354 12.113 55.927 31.596 75h-38.839c-14.898-22.208-22.757-47.977-22.757-75zm60 0c0-34.923 24.689-65.421 58.277-73.121l61.723 41.149v-28.003c18.52 13.937 30 36.021 30 59.975 0 41.355-33.645 75-75 75s-75-33.644-75-75zm-91 135v-30h166c57.897 0 105-47.103 105-105 0-44.372-28.126-84.156-69.988-98.998l-20.012-7.094v18.065l-47.958-31.972 47.958-31.973v17.234l12.016 2.439c62.57 12.701 107.984 68.341 107.984 132.299 0 74.439-60.561 135-135 135z"/></g></svg>