<?xml version="1.0" encoding="iso-8859-1"?>
<!-- Generator: Adobe Illustrator 19.0.0, SVG Export Plug-In . SVG Version: 6.00 Build 0)  -->
<svg version="1.1" id="Capa_1" xmlns="http://www.w3.org/2000/svg" xmlns:xlink="http://www.w3.org/1999/xlink" x="0px" y="0px"
	 viewBox="0 0 512 512" style="enable-background:new 0 0 512 512;" xml:space="preserve">
<g>
	<g>
		<rect y="189.797" width="155.401" height="133.194"/>
	</g>
</g>
<g>
	<g>
		<rect x="185.398" y="352.978" width="133.194" height="159.021"/>
	</g>
</g>
<g>
	<g>
		<rect x="348.589" y="189.797" width="163.411" height="133.194"/>
	</g>
</g>
<g>
	<g>
		<rect x="185.398" y="189.797" width="133.194" height="133.194"/>
	</g>
</g>
<g>
	<g>
		<rect x="185.398" y="0" width="133.194" height="159.801"/>
	</g>
</g>
<g>
	<g>
		<path d="M155.402,352.982H0v102.131C0,486.48,25.519,512,56.887,512h98.516V352.982H155.402z"/>
	</g>
</g>
<g>
	<g>
		<path d="M455.113,0H348.585v159.799h0H512V56.887C512,25.519,486.48,0,455.113,0z"/>
	</g>
</g>
<g>
	<g>
		<path d="M348.586,352.982v159.017h106.527c31.367,0,56.887-25.519,56.887-56.887v-102.13H348.586z"/>
	</g>
</g>
<g>
	<g>
		<path d="M56.887,0C25.519,0,0,25.519,0,56.887V159.8h155.402v-0.001V0H56.887z"/>
	</g>
</g>
<g>
</g>
<g>
</g>
<g>
</g>
<g>
</g>
<g>
</g>
<g>
</g>
<g>
</g>
<g>
</g>
<g>
</g>
<g>
</g>
<g>
</g>
<g>
</g>
<g>
</g>
<g>
</g>
<g>
</g>
</svg>
